<?xml version="1.0" encoding="utf-8"?>
<svg xmlns="http://www.w3.org/2000/svg" xmlns:xlink="http://www.w3.org/1999/xlink" width="600" height="400" viewBox="0 0 2400 1600">
<defs>
  <clipPath id="clip100">
    <rect x="0" y="0" width="2400" height="1600"/>
  </clipPath>
</defs>
<path clip-path="url(#clip100)" d="
M0 1600 L2400 1600 L2400 0 L0 0  Z
  " fill="#ffffff" fill-rule="evenodd" fill-opacity="1"/>
<defs>
  <clipPath id="clip101">
    <rect x="480" y="0" width="1681" height="1600"/>
  </clipPath>
</defs>
<path clip-path="url(#clip100)" d="
M185.927 1486.45 L2352.76 1486.45 L2352.76 47.2441 L185.927 47.2441  Z
  " fill="#ffffff" fill-rule="evenodd" fill-opacity="1"/>
<defs>
  <clipPath id="clip102">
    <rect x="185" y="47" width="2168" height="1440"/>
  </clipPath>
</defs>
<polyline clip-path="url(#clip102)" style="stroke:#000000; stroke-linecap:butt; stroke-linejoin:round; stroke-width:2; stroke-opacity:0.1; fill:none" points="
  185.927,1486.45 185.927,47.2441 
  "/>
<polyline clip-path="url(#clip102)" style="stroke:#000000; stroke-linecap:butt; stroke-linejoin:round; stroke-width:2; stroke-opacity:0.1; fill:none" points="
  908.203,1486.45 908.203,47.2441 
  "/>
<polyline clip-path="url(#clip102)" style="stroke:#000000; stroke-linecap:butt; stroke-linejoin:round; stroke-width:2; stroke-opacity:0.1; fill:none" points="
  1630.48,1486.45 1630.48,47.2441 
  "/>
<polyline clip-path="url(#clip102)" style="stroke:#000000; stroke-linecap:butt; stroke-linejoin:round; stroke-width:2; stroke-opacity:0.1; fill:none" points="
  2352.76,1486.45 2352.76,47.2441 
  "/>
<polyline clip-path="url(#clip100)" style="stroke:#000000; stroke-linecap:butt; stroke-linejoin:round; stroke-width:4; stroke-opacity:1; fill:none" points="
  185.927,1486.45 2352.76,1486.45 
  "/>
<polyline clip-path="url(#clip100)" style="stroke:#000000; stroke-linecap:butt; stroke-linejoin:round; stroke-width:4; stroke-opacity:1; fill:none" points="
  185.927,1486.45 185.927,1467.55 
  "/>
<polyline clip-path="url(#clip100)" style="stroke:#000000; stroke-linecap:butt; stroke-linejoin:round; stroke-width:4; stroke-opacity:1; fill:none" points="
  908.203,1486.45 908.203,1467.55 
  "/>
<polyline clip-path="url(#clip100)" style="stroke:#000000; stroke-linecap:butt; stroke-linejoin:round; stroke-width:4; stroke-opacity:1; fill:none" points="
  1630.48,1486.45 1630.48,1467.55 
  "/>
<polyline clip-path="url(#clip100)" style="stroke:#000000; stroke-linecap:butt; stroke-linejoin:round; stroke-width:4; stroke-opacity:1; fill:none" points="
  2352.76,1486.45 2352.76,1467.55 
  "/>
<path clip-path="url(#clip100)" d="M176.309 1544.91 L183.948 1544.91 L183.948 1518.55 L175.637 1520.21 L175.637 1515.95 L183.901 1514.29 L188.577 1514.29 L188.577 1544.91 L196.216 1544.91 L196.216 1548.85 L176.309 1548.85 L176.309 1544.91 Z" fill="#000000" fill-rule="evenodd" fill-opacity="1" /><path clip-path="url(#clip100)" d="M902.856 1544.91 L919.175 1544.91 L919.175 1548.85 L897.231 1548.85 L897.231 1544.91 Q899.893 1542.16 904.476 1537.53 Q909.083 1532.88 910.263 1531.53 Q912.509 1529.01 913.388 1527.27 Q914.291 1525.51 914.291 1523.82 Q914.291 1521.07 912.347 1519.33 Q910.425 1517.6 907.324 1517.6 Q905.124 1517.6 902.671 1518.36 Q900.24 1519.13 897.462 1520.68 L897.462 1515.95 Q900.287 1514.82 902.74 1514.24 Q905.194 1513.66 907.231 1513.66 Q912.601 1513.66 915.796 1516.35 Q918.99 1519.03 918.99 1523.52 Q918.99 1525.65 918.18 1527.57 Q917.393 1529.47 915.286 1532.07 Q914.708 1532.74 911.606 1535.95 Q908.504 1539.15 902.856 1544.91 Z" fill="#000000" fill-rule="evenodd" fill-opacity="1" /><path clip-path="url(#clip100)" d="M1634.73 1530.21 Q1638.08 1530.93 1639.96 1533.2 Q1641.86 1535.47 1641.86 1538.8 Q1641.86 1543.92 1638.34 1546.72 Q1634.82 1549.52 1628.34 1549.52 Q1626.16 1549.52 1623.85 1549.08 Q1621.56 1548.66 1619.1 1547.81 L1619.1 1543.29 Q1621.05 1544.43 1623.36 1545.01 Q1625.68 1545.58 1628.2 1545.58 Q1632.6 1545.58 1634.89 1543.85 Q1637.2 1542.11 1637.2 1538.8 Q1637.2 1535.75 1635.05 1534.03 Q1632.92 1532.3 1629.1 1532.3 L1625.07 1532.3 L1625.07 1528.45 L1629.29 1528.45 Q1632.74 1528.45 1634.57 1527.09 Q1636.39 1525.7 1636.39 1523.11 Q1636.39 1520.45 1634.5 1519.03 Q1632.62 1517.6 1629.1 1517.6 Q1627.18 1517.6 1624.98 1518.01 Q1622.78 1518.43 1620.14 1519.31 L1620.14 1515.14 Q1622.81 1514.4 1625.12 1514.03 Q1627.46 1513.66 1629.52 1513.66 Q1634.84 1513.66 1637.94 1516.09 Q1641.05 1518.5 1641.05 1522.62 Q1641.05 1525.49 1639.4 1527.48 Q1637.76 1529.45 1634.73 1530.21 Z" fill="#000000" fill-rule="evenodd" fill-opacity="1" /><path clip-path="url(#clip100)" d="M2355.77 1518.36 L2343.96 1536.81 L2355.77 1536.81 L2355.77 1518.36 M2354.54 1514.29 L2360.42 1514.29 L2360.42 1536.81 L2365.35 1536.81 L2365.35 1540.7 L2360.42 1540.7 L2360.42 1548.85 L2355.77 1548.85 L2355.77 1540.7 L2340.16 1540.7 L2340.16 1536.19 L2354.54 1514.29 Z" fill="#000000" fill-rule="evenodd" fill-opacity="1" /><polyline clip-path="url(#clip102)" style="stroke:#000000; stroke-linecap:butt; stroke-linejoin:round; stroke-width:2; stroke-opacity:0.1; fill:none" points="
  185.927,1486.45 2352.76,1486.45 
  "/>
<polyline clip-path="url(#clip102)" style="stroke:#000000; stroke-linecap:butt; stroke-linejoin:round; stroke-width:2; stroke-opacity:0.1; fill:none" points="
  185.927,1126.65 2352.76,1126.65 
  "/>
<polyline clip-path="url(#clip102)" style="stroke:#000000; stroke-linecap:butt; stroke-linejoin:round; stroke-width:2; stroke-opacity:0.1; fill:none" points="
  185.927,766.846 2352.76,766.846 
  "/>
<polyline clip-path="url(#clip102)" style="stroke:#000000; stroke-linecap:butt; stroke-linejoin:round; stroke-width:2; stroke-opacity:0.1; fill:none" points="
  185.927,407.045 2352.76,407.045 
  "/>
<polyline clip-path="url(#clip102)" style="stroke:#000000; stroke-linecap:butt; stroke-linejoin:round; stroke-width:2; stroke-opacity:0.1; fill:none" points="
  185.927,47.2441 2352.76,47.2441 
  "/>
<polyline clip-path="url(#clip100)" style="stroke:#000000; stroke-linecap:butt; stroke-linejoin:round; stroke-width:4; stroke-opacity:1; fill:none" points="
  185.927,1486.45 185.927,47.2441 
  "/>
<polyline clip-path="url(#clip100)" style="stroke:#000000; stroke-linecap:butt; stroke-linejoin:round; stroke-width:4; stroke-opacity:1; fill:none" points="
  185.927,1486.45 204.824,1486.45 
  "/>
<polyline clip-path="url(#clip100)" style="stroke:#000000; stroke-linecap:butt; stroke-linejoin:round; stroke-width:4; stroke-opacity:1; fill:none" points="
  185.927,1126.65 204.824,1126.65 
  "/>
<polyline clip-path="url(#clip100)" style="stroke:#000000; stroke-linecap:butt; stroke-linejoin:round; stroke-width:4; stroke-opacity:1; fill:none" points="
  185.927,766.846 204.824,766.846 
  "/>
<polyline clip-path="url(#clip100)" style="stroke:#000000; stroke-linecap:butt; stroke-linejoin:round; stroke-width:4; stroke-opacity:1; fill:none" points="
  185.927,407.045 204.824,407.045 
  "/>
<polyline clip-path="url(#clip100)" style="stroke:#000000; stroke-linecap:butt; stroke-linejoin:round; stroke-width:4; stroke-opacity:1; fill:none" points="
  185.927,47.2441 204.824,47.2441 
  "/>
<path clip-path="url(#clip100)" d="M53.3995 1499.79 L61.0384 1499.79 L61.0384 1473.43 L52.7282 1475.09 L52.7282 1470.83 L60.9921 1469.17 L65.668 1469.17 L65.668 1499.79 L73.3068 1499.79 L73.3068 1503.73 L53.3995 1503.73 L53.3995 1499.79 Z" fill="#000000" fill-rule="evenodd" fill-opacity="1" /><path clip-path="url(#clip100)" d="M82.7512 1497.85 L87.6354 1497.85 L87.6354 1503.73 L82.7512 1503.73 L82.7512 1497.85 Z" fill="#000000" fill-rule="evenodd" fill-opacity="1" /><path clip-path="url(#clip100)" d="M107.821 1472.25 Q104.209 1472.25 102.381 1475.81 Q100.575 1479.35 100.575 1486.48 Q100.575 1493.59 102.381 1497.15 Q104.209 1500.7 107.821 1500.7 Q111.455 1500.7 113.26 1497.15 Q115.089 1493.59 115.089 1486.48 Q115.089 1479.35 113.26 1475.81 Q111.455 1472.25 107.821 1472.25 M107.821 1468.54 Q113.631 1468.54 116.686 1473.15 Q119.765 1477.73 119.765 1486.48 Q119.765 1495.21 116.686 1499.82 Q113.631 1504.4 107.821 1504.4 Q102.01 1504.4 98.9317 1499.82 Q95.8761 1495.21 95.8761 1486.48 Q95.8761 1477.73 98.9317 1473.15 Q102.01 1468.54 107.821 1468.54 Z" fill="#000000" fill-rule="evenodd" fill-opacity="1" /><path clip-path="url(#clip100)" d="M137.982 1472.25 Q134.371 1472.25 132.543 1475.81 Q130.737 1479.35 130.737 1486.48 Q130.737 1493.59 132.543 1497.15 Q134.371 1500.7 137.982 1500.7 Q141.617 1500.7 143.422 1497.15 Q145.251 1493.59 145.251 1486.48 Q145.251 1479.35 143.422 1475.81 Q141.617 1472.25 137.982 1472.25 M137.982 1468.54 Q143.793 1468.54 146.848 1473.15 Q149.927 1477.73 149.927 1486.48 Q149.927 1495.21 146.848 1499.82 Q143.793 1504.4 137.982 1504.4 Q132.172 1504.4 129.094 1499.82 Q126.038 1495.21 126.038 1486.48 Q126.038 1477.73 129.094 1473.15 Q132.172 1468.54 137.982 1468.54 Z" fill="#000000" fill-rule="evenodd" fill-opacity="1" /><path clip-path="url(#clip100)" d="M54.3949 1139.99 L62.0337 1139.99 L62.0337 1113.63 L53.7236 1115.29 L53.7236 1111.03 L61.9874 1109.37 L66.6633 1109.37 L66.6633 1139.99 L74.3022 1139.99 L74.3022 1143.93 L54.3949 1143.93 L54.3949 1139.99 Z" fill="#000000" fill-rule="evenodd" fill-opacity="1" /><path clip-path="url(#clip100)" d="M83.7466 1138.05 L88.6308 1138.05 L88.6308 1143.93 L83.7466 1143.93 L83.7466 1138.05 Z" fill="#000000" fill-rule="evenodd" fill-opacity="1" /><path clip-path="url(#clip100)" d="M102.844 1139.99 L119.163 1139.99 L119.163 1143.93 L97.2187 1143.93 L97.2187 1139.99 Q99.8808 1137.24 104.464 1132.61 Q109.071 1127.95 110.251 1126.61 Q112.496 1124.09 113.376 1122.35 Q114.279 1120.59 114.279 1118.9 Q114.279 1116.15 112.334 1114.41 Q110.413 1112.68 107.311 1112.68 Q105.112 1112.68 102.659 1113.44 Q100.228 1114.2 97.4502 1115.76 L97.4502 1111.03 Q100.274 1109.9 102.728 1109.32 Q105.182 1108.74 107.219 1108.74 Q112.589 1108.74 115.783 1111.43 Q118.978 1114.11 118.978 1118.6 Q118.978 1120.73 118.168 1122.65 Q117.381 1124.55 115.274 1127.14 Q114.695 1127.82 111.594 1131.03 Q108.492 1134.23 102.844 1139.99 Z" fill="#000000" fill-rule="evenodd" fill-opacity="1" /><path clip-path="url(#clip100)" d="M129.024 1109.37 L147.38 1109.37 L147.38 1113.3 L133.306 1113.3 L133.306 1121.77 Q134.325 1121.43 135.344 1121.27 Q136.362 1121.08 137.381 1121.08 Q143.168 1121.08 146.547 1124.25 Q149.927 1127.42 149.927 1132.84 Q149.927 1138.42 146.455 1141.52 Q142.982 1144.6 136.663 1144.6 Q134.487 1144.6 132.219 1144.23 Q129.973 1143.86 127.566 1143.12 L127.566 1138.42 Q129.649 1139.55 131.871 1140.11 Q134.094 1140.66 136.57 1140.66 Q140.575 1140.66 142.913 1138.56 Q145.251 1136.45 145.251 1132.84 Q145.251 1129.23 142.913 1127.12 Q140.575 1125.01 136.57 1125.01 Q134.695 1125.01 132.82 1125.43 Q130.969 1125.85 129.024 1126.73 L129.024 1109.37 Z" fill="#000000" fill-rule="evenodd" fill-opacity="1" /><path clip-path="url(#clip100)" d="M53.3995 780.191 L61.0384 780.191 L61.0384 753.825 L52.7282 755.492 L52.7282 751.233 L60.9921 749.566 L65.668 749.566 L65.668 780.191 L73.3068 780.191 L73.3068 784.126 L53.3995 784.126 L53.3995 780.191 Z" fill="#000000" fill-rule="evenodd" fill-opacity="1" /><path clip-path="url(#clip100)" d="M82.7512 778.246 L87.6354 778.246 L87.6354 784.126 L82.7512 784.126 L82.7512 778.246 Z" fill="#000000" fill-rule="evenodd" fill-opacity="1" /><path clip-path="url(#clip100)" d="M97.8669 749.566 L116.223 749.566 L116.223 753.501 L102.149 753.501 L102.149 761.973 Q103.168 761.626 104.186 761.464 Q105.205 761.279 106.223 761.279 Q112.01 761.279 115.39 764.45 Q118.77 767.621 118.77 773.038 Q118.77 778.617 115.297 781.719 Q111.825 784.797 105.506 784.797 Q103.33 784.797 101.061 784.427 Q98.8159 784.057 96.4085 783.316 L96.4085 778.617 Q98.4919 779.751 100.714 780.307 Q102.936 780.862 105.413 780.862 Q109.418 780.862 111.756 778.756 Q114.094 776.649 114.094 773.038 Q114.094 769.427 111.756 767.321 Q109.418 765.214 105.413 765.214 Q103.538 765.214 101.663 765.631 Q99.8113 766.047 97.8669 766.927 L97.8669 749.566 Z" fill="#000000" fill-rule="evenodd" fill-opacity="1" /><path clip-path="url(#clip100)" d="M137.982 752.645 Q134.371 752.645 132.543 756.209 Q130.737 759.751 130.737 766.881 Q130.737 773.987 132.543 777.552 Q134.371 781.094 137.982 781.094 Q141.617 781.094 143.422 777.552 Q145.251 773.987 145.251 766.881 Q145.251 759.751 143.422 756.209 Q141.617 752.645 137.982 752.645 M137.982 748.941 Q143.793 748.941 146.848 753.547 Q149.927 758.131 149.927 766.881 Q149.927 775.608 146.848 780.214 Q143.793 784.797 137.982 784.797 Q132.172 784.797 129.094 780.214 Q126.038 775.608 126.038 766.881 Q126.038 758.131 129.094 753.547 Q132.172 748.941 137.982 748.941 Z" fill="#000000" fill-rule="evenodd" fill-opacity="1" /><path clip-path="url(#clip100)" d="M54.3949 420.39 L62.0337 420.39 L62.0337 394.024 L53.7236 395.691 L53.7236 391.432 L61.9874 389.765 L66.6633 389.765 L66.6633 420.39 L74.3022 420.39 L74.3022 424.325 L54.3949 424.325 L54.3949 420.39 Z" fill="#000000" fill-rule="evenodd" fill-opacity="1" /><path clip-path="url(#clip100)" d="M83.7466 418.445 L88.6308 418.445 L88.6308 424.325 L83.7466 424.325 L83.7466 418.445 Z" fill="#000000" fill-rule="evenodd" fill-opacity="1" /><path clip-path="url(#clip100)" d="M97.6354 389.765 L119.857 389.765 L119.857 391.756 L107.311 424.325 L102.427 424.325 L114.233 393.7 L97.6354 393.7 L97.6354 389.765 Z" fill="#000000" fill-rule="evenodd" fill-opacity="1" /><path clip-path="url(#clip100)" d="M129.024 389.765 L147.38 389.765 L147.38 393.7 L133.306 393.7 L133.306 402.172 Q134.325 401.825 135.344 401.663 Q136.362 401.478 137.381 401.478 Q143.168 401.478 146.547 404.649 Q149.927 407.82 149.927 413.237 Q149.927 418.816 146.455 421.918 Q142.982 424.996 136.663 424.996 Q134.487 424.996 132.219 424.626 Q129.973 424.256 127.566 423.515 L127.566 418.816 Q129.649 419.95 131.871 420.506 Q134.094 421.061 136.57 421.061 Q140.575 421.061 142.913 418.955 Q145.251 416.848 145.251 413.237 Q145.251 409.626 142.913 407.52 Q140.575 405.413 136.57 405.413 Q134.695 405.413 132.82 405.83 Q130.969 406.246 129.024 407.126 L129.024 389.765 Z" fill="#000000" fill-rule="evenodd" fill-opacity="1" /><path clip-path="url(#clip100)" d="M56.6171 60.5889 L72.9365 60.5889 L72.9365 64.5241 L50.9921 64.5241 L50.9921 60.5889 Q53.6541 57.8343 58.2375 53.2047 Q62.8439 48.552 64.0245 47.2094 Q66.2698 44.6862 67.1494 42.9501 Q68.0522 41.1909 68.0522 39.5011 Q68.0522 36.7465 66.1078 35.0104 Q64.1865 33.2743 61.0847 33.2743 Q58.8856 33.2743 56.4319 34.0381 Q54.0014 34.802 51.2236 36.3529 L51.2236 31.6308 Q54.0477 30.4965 56.5014 29.9178 Q58.955 29.3391 60.9921 29.3391 Q66.3624 29.3391 69.5568 32.0243 Q72.7513 34.7094 72.7513 39.2002 Q72.7513 41.3298 71.9411 43.2511 Q71.1541 45.1492 69.0476 47.7418 Q68.4689 48.4131 65.367 51.6306 Q62.2652 54.8251 56.6171 60.5889 Z" fill="#000000" fill-rule="evenodd" fill-opacity="1" /><path clip-path="url(#clip100)" d="M82.7512 58.6445 L87.6354 58.6445 L87.6354 64.5241 L82.7512 64.5241 L82.7512 58.6445 Z" fill="#000000" fill-rule="evenodd" fill-opacity="1" /><path clip-path="url(#clip100)" d="M107.821 33.0428 Q104.209 33.0428 102.381 36.6076 Q100.575 40.1492 100.575 47.2788 Q100.575 54.3853 102.381 57.9501 Q104.209 61.4917 107.821 61.4917 Q111.455 61.4917 113.26 57.9501 Q115.089 54.3853 115.089 47.2788 Q115.089 40.1492 113.26 36.6076 Q111.455 33.0428 107.821 33.0428 M107.821 29.3391 Q113.631 29.3391 116.686 33.9456 Q119.765 38.5289 119.765 47.2788 Q119.765 56.0056 116.686 60.6121 Q113.631 65.1954 107.821 65.1954 Q102.01 65.1954 98.9317 60.6121 Q95.8761 56.0056 95.8761 47.2788 Q95.8761 38.5289 98.9317 33.9456 Q102.01 29.3391 107.821 29.3391 Z" fill="#000000" fill-rule="evenodd" fill-opacity="1" /><path clip-path="url(#clip100)" d="M137.982 33.0428 Q134.371 33.0428 132.543 36.6076 Q130.737 40.1492 130.737 47.2788 Q130.737 54.3853 132.543 57.9501 Q134.371 61.4917 137.982 61.4917 Q141.617 61.4917 143.422 57.9501 Q145.251 54.3853 145.251 47.2788 Q145.251 40.1492 143.422 36.6076 Q141.617 33.0428 137.982 33.0428 M137.982 29.3391 Q143.793 29.3391 146.848 33.9456 Q149.927 38.5289 149.927 47.2788 Q149.927 56.0056 146.848 60.6121 Q143.793 65.1954 137.982 65.1954 Q132.172 65.1954 129.094 60.6121 Q126.038 56.0056 126.038 47.2788 Q126.038 38.5289 129.094 33.9456 Q132.172 29.3391 137.982 29.3391 Z" fill="#000000" fill-rule="evenodd" fill-opacity="1" /><polyline clip-path="url(#clip102)" style="stroke:#00a8cb; stroke-linecap:butt; stroke-linejoin:round; stroke-width:4; stroke-opacity:1; fill:none" points="
  185.927,2925.65 185.927,-1391.96 
  "/>
<polyline clip-path="url(#clip102)" style="stroke:#9b7fe8; stroke-linecap:butt; stroke-linejoin:round; stroke-width:4; stroke-opacity:1; fill:none" points="
  908.203,2925.65 908.203,-1391.96 
  "/>
<polyline clip-path="url(#clip102)" style="stroke:#608cf6; stroke-linecap:butt; stroke-linejoin:round; stroke-width:4; stroke-opacity:1; fill:none" points="
  1630.48,2925.65 1630.48,-1391.96 
  "/>
<polyline clip-path="url(#clip102)" style="stroke:#f05f73; stroke-linecap:butt; stroke-linejoin:round; stroke-width:4; stroke-opacity:1; fill:none" points="
  2352.76,2925.65 2352.76,-1391.96 
  "/>
<path clip-path="url(#clip100)" d="
M1985.63 354.418 L2280.53 354.418 L2280.53 95.2176 L1985.63 95.2176  Z
  " fill="#ffffff" fill-rule="evenodd" fill-opacity="1"/>
<polyline clip-path="url(#clip100)" style="stroke:#000000; stroke-linecap:butt; stroke-linejoin:round; stroke-width:4; stroke-opacity:1; fill:none" points="
  1985.63,354.418 2280.53,354.418 2280.53,95.2176 1985.63,95.2176 1985.63,354.418 
  "/>
<polyline clip-path="url(#clip100)" style="stroke:#00a8cb; stroke-linecap:butt; stroke-linejoin:round; stroke-width:4; stroke-opacity:1; fill:none" points="
  2009.7,147.058 2154.16,147.058 
  "/>
<path clip-path="url(#clip100)" d="M2192.08 166.745 Q2190.27 171.375 2188.56 172.787 Q2186.84 174.199 2183.97 174.199 L2180.57 174.199 L2180.57 170.634 L2183.07 170.634 Q2184.83 170.634 2185.8 169.8 Q2186.77 168.967 2187.96 165.865 L2188.72 163.921 L2178.23 138.412 L2182.75 138.412 L2190.85 158.689 L2198.95 138.412 L2203.46 138.412 L2192.08 166.745 Z" fill="#000000" fill-rule="evenodd" fill-opacity="1" /><path clip-path="url(#clip100)" d="M2210.76 160.402 L2218.4 160.402 L2218.4 134.037 L2210.08 135.703 L2210.08 131.444 L2218.35 129.778 L2223.02 129.778 L2223.02 160.402 L2230.66 160.402 L2230.66 164.338 L2210.76 164.338 L2210.76 160.402 Z" fill="#000000" fill-rule="evenodd" fill-opacity="1" /><polyline clip-path="url(#clip100)" style="stroke:#9b7fe8; stroke-linecap:butt; stroke-linejoin:round; stroke-width:4; stroke-opacity:1; fill:none" points="
  2009.7,198.898 2154.16,198.898 
  "/>
<path clip-path="url(#clip100)" d="M2192.08 218.585 Q2190.27 223.215 2188.56 224.627 Q2186.84 226.039 2183.97 226.039 L2180.57 226.039 L2180.57 222.474 L2183.07 222.474 Q2184.83 222.474 2185.8 221.64 Q2186.77 220.807 2187.96 217.705 L2188.72 215.761 L2178.23 190.252 L2182.75 190.252 L2190.85 210.529 L2198.95 190.252 L2203.46 190.252 L2192.08 218.585 Z" fill="#000000" fill-rule="evenodd" fill-opacity="1" /><path clip-path="url(#clip100)" d="M2213.97 212.242 L2230.29 212.242 L2230.29 216.178 L2208.35 216.178 L2208.35 212.242 Q2211.01 209.488 2215.59 204.858 Q2220.2 200.205 2221.38 198.863 Q2223.63 196.34 2224.51 194.604 Q2225.41 192.844 2225.41 191.155 Q2225.41 188.4 2223.46 186.664 Q2221.54 184.928 2218.44 184.928 Q2216.24 184.928 2213.79 185.692 Q2211.36 186.455 2208.58 188.006 L2208.58 183.284 Q2211.4 182.15 2213.86 181.571 Q2216.31 180.993 2218.35 180.993 Q2223.72 180.993 2226.91 183.678 Q2230.11 186.363 2230.11 190.854 Q2230.11 192.983 2229.3 194.905 Q2228.51 196.803 2226.4 199.395 Q2225.83 200.067 2222.72 203.284 Q2219.62 206.479 2213.97 212.242 Z" fill="#000000" fill-rule="evenodd" fill-opacity="1" /><polyline clip-path="url(#clip100)" style="stroke:#608cf6; stroke-linecap:butt; stroke-linejoin:round; stroke-width:4; stroke-opacity:1; fill:none" points="
  2009.7,250.738 2154.16,250.738 
  "/>
<path clip-path="url(#clip100)" d="M2192.08 270.425 Q2190.27 275.055 2188.56 276.467 Q2186.84 277.879 2183.97 277.879 L2180.57 277.879 L2180.57 274.314 L2183.07 274.314 Q2184.83 274.314 2185.8 273.48 Q2186.77 272.647 2187.96 269.545 L2188.72 267.601 L2178.23 242.092 L2182.75 242.092 L2190.85 262.369 L2198.95 242.092 L2203.46 242.092 L2192.08 270.425 Z" fill="#000000" fill-rule="evenodd" fill-opacity="1" /><path clip-path="url(#clip100)" d="M2224.11 249.383 Q2227.47 250.101 2229.34 252.369 Q2231.24 254.638 2231.24 257.971 Q2231.24 263.087 2227.72 265.888 Q2224.21 268.689 2217.72 268.689 Q2215.55 268.689 2213.23 268.249 Q2210.94 267.832 2208.49 266.976 L2208.49 262.462 Q2210.43 263.596 2212.75 264.175 Q2215.06 264.754 2217.58 264.754 Q2221.98 264.754 2224.27 263.018 Q2226.59 261.281 2226.59 257.971 Q2226.59 254.916 2224.44 253.203 Q2222.31 251.467 2218.49 251.467 L2214.46 251.467 L2214.46 247.624 L2218.67 247.624 Q2222.12 247.624 2223.95 246.258 Q2225.78 244.87 2225.78 242.277 Q2225.78 239.615 2223.88 238.203 Q2222.01 236.768 2218.49 236.768 Q2216.57 236.768 2214.37 237.184 Q2212.17 237.601 2209.53 238.481 L2209.53 234.314 Q2212.19 233.573 2214.51 233.203 Q2216.84 232.833 2218.9 232.833 Q2224.23 232.833 2227.33 235.263 Q2230.43 237.67 2230.43 241.791 Q2230.43 244.661 2228.79 246.652 Q2227.15 248.62 2224.11 249.383 Z" fill="#000000" fill-rule="evenodd" fill-opacity="1" /><polyline clip-path="url(#clip100)" style="stroke:#f05f73; stroke-linecap:butt; stroke-linejoin:round; stroke-width:4; stroke-opacity:1; fill:none" points="
  2009.7,302.578 2154.16,302.578 
  "/>
<path clip-path="url(#clip100)" d="M2192.08 322.265 Q2190.27 326.895 2188.56 328.307 Q2186.84 329.719 2183.97 329.719 L2180.57 329.719 L2180.57 326.154 L2183.07 326.154 Q2184.83 326.154 2185.8 325.32 Q2186.77 324.487 2187.96 321.385 L2188.72 319.441 L2178.23 293.932 L2182.75 293.932 L2190.85 314.209 L2198.95 293.932 L2203.46 293.932 L2192.08 322.265 Z" fill="#000000" fill-rule="evenodd" fill-opacity="1" /><path clip-path="url(#clip100)" d="M2222.79 289.372 L2210.99 307.821 L2222.79 307.821 L2222.79 289.372 M2221.57 285.298 L2227.45 285.298 L2227.45 307.821 L2232.38 307.821 L2232.38 311.709 L2227.45 311.709 L2227.45 319.858 L2222.79 319.858 L2222.79 311.709 L2207.19 311.709 L2207.19 307.196 L2221.57 285.298 Z" fill="#000000" fill-rule="evenodd" fill-opacity="1" /></svg>
